<svg width="744" height="661" viewBox="0 0 744 661" fill="none" xmlns="http://www.w3.org/2000/svg">
<mask id="mask0_114_23982" style="mask-type:luminance" maskUnits="userSpaceOnUse" x="0" y="0" width="744" height="661">
<path d="M744 0H0V661H744V0Z" fill="white"/>
</mask>
<g mask="url(#mask0_114_23982)">
<path d="M744 0H0V661H744V0Z" fill="#0B539D"/>
<path d="M0.000152588 352.47C41.0446 350.438 66.6498 283.093 103.355 254.01C146.081 220.156 211.764 235.711 232.861 167.964C253.8 100.726 209.537 27.3862 196.344 -44.5893C185.27 -105.003 187.384 -173.236 161.546 -221.093C135.633 -269.088 92.6983 -277.191 56.4562 -303.684C12.8834 -335.536 -26.1278 -409.159 -72.9719 -392.527C-119.454 -376.024 -133.788 -282.664 -164.558 -225.215C-194.87 -168.619 -247.748 -131.09 -252.498 -57.3411C-257.254 16.5177 -215.026 74.9501 -187.785 135.451C-165.217 185.573 -139.031 228.136 -107.604 264.455C-74.3324 302.907 -41.207 354.51 0.000152588 352.47Z" fill="#09427E"/>
<path d="M744 1132.94C799.101 1134.5 840.482 1059.1 886.337 1010.82C931.356 963.411 976.886 920.457 1009.99 852.861C1050.15 770.867 1100.27 684.383 1096.92 580.854C1093.53 476.222 1037.31 398.167 992.764 320.54C949.108 244.466 905.805 152.091 841.608 135.953C778.533 120.096 725.625 204.622 665.408 238.246C609.329 269.561 547.38 270.397 499.816 326.808C445.447 391.291 392.444 472.854 378.872 578.082C365.086 684.973 382.81 805.966 427.245 889.478C469.187 968.302 546.279 957.813 604.897 1002.87C654.351 1040.88 689.011 1131.39 744 1132.94Z" fill="#0D64BC"/>
</g>
</svg>
