<svg width="1920" height="661" viewBox="0 0 1920 661" fill="none" xmlns="http://www.w3.org/2000/svg">
<mask id="mask0_53_1911" style="mask-type:luminance" maskUnits="userSpaceOnUse" x="0" y="0" width="1920" height="661">
<path d="M1920 0H0V661H1920V0Z" fill="white"/>
</mask>
<g mask="url(#mask0_53_1911)">
<path d="M1920 0H0V661H1920V0Z" fill="#0B539D"/>
<path d="M-0.00164795 352.471C105.919 350.439 171.997 283.094 266.719 254.011C376.981 220.157 546.484 235.712 600.93 167.965C654.966 100.727 540.739 27.3872 506.692 -44.5883C478.114 -105.002 483.57 -173.235 416.89 -221.092C350.018 -269.087 239.219 -277.19 145.691 -303.683C33.2454 -335.535 -67.4286 -409.158 -188.317 -392.526C-308.272 -376.024 -345.261 -282.663 -424.667 -225.214C-502.893 -168.618 -639.352 -131.089 -651.609 -57.3401C-663.884 16.5187 -554.909 74.951 -484.609 135.452C-426.368 185.574 -358.792 228.137 -277.691 264.456C-191.828 302.908 -106.343 354.511 -0.00164795 352.471Z" fill="#09427E"/>
<path d="M1920 1132.94C2062.2 1134.5 2168.98 1059.1 2287.32 1010.82C2403.5 963.412 2520.99 920.458 2606.43 852.862C2710.06 770.868 2839.41 684.384 2830.76 580.855C2822.02 476.223 2676.93 398.168 2561.97 320.541C2449.31 244.467 2337.56 152.092 2171.89 135.954C2009.12 120.097 1872.58 204.623 1717.18 238.247C1572.46 269.562 1412.59 270.398 1289.85 326.809C1149.54 391.292 1012.76 472.855 977.733 578.083C942.155 684.974 987.894 805.967 1102.57 889.479C1210.8 968.303 1409.75 957.814 1561.02 1002.87C1688.65 1040.88 1778.09 1131.39 1920 1132.94Z" fill="#0D64BC"/>
</g>
</svg>
