<svg width="71" height="62" viewBox="0 0 71 62" fill="none" xmlns="http://www.w3.org/2000/svg">
<path d="M9.09181 45H12.4817L13.5549 28.8522L14.023 21.8079L14.4552 15.3054L14.5632 13.6798L14.6785 11.9458L14.7865 10.3202L14.8874 8.80295H11.1695L11.0824 10.3202L10.9891 11.9458L10.8895 13.6798L10.7962 15.3054L10.423 21.8079L10.0187 28.8522L9.09181 45Z" fill="#09427E"/>
<path d="M11.1695 8.80295H14.8874M11.1695 8.80295L11.0824 10.3202L10.9891 11.9458M11.1695 8.80295L4.82715 12.8128M14.8874 8.80295L28.5561 18.3399M14.8874 8.80295L14.7865 10.3202L14.6785 11.9458M5.3739 21.8079H10.423M10.423 21.8079L10.0187 28.8522L9.09181 45H12.4817L13.5549 28.8522L14.023 21.8079M10.423 21.8079L10.7962 15.3054M14.023 21.8079L14.4552 15.3054M14.023 21.8079H23.6354L14.4552 15.3054M14.6785 11.9458L27.6813 21.266M14.6785 11.9458L14.5632 13.6798L14.4552 15.3054M10.9891 11.9458L10.8895 13.6798L10.7962 15.3054M10.9891 11.9458L5.1552 15.8473M10.7962 15.3054L5.3739 19.3153" stroke="#09427E"/>
<path d="M33.3678 1H37.6324L35.2267 10.3202L31.8943 21.8079L31.5799 22.8916L31.3516 23.6502L30.634 26.0345L25.1665 45H21.1206L26.3694 26.0345L27.0559 23.6502L27.2743 22.8916L27.576 21.8079L33.3678 1Z" fill="#09427E"/>
<path d="M35.2267 10.3202L37.6324 1L41.615 19.0053L41.9107 20.3425L42.2348 21.8079L42.4746 22.8916L42.6255 23.6502L43.1 26.0345L47.3646 45H43.1L38.8353 26.0345L38.2629 23.6502L38.0808 22.8916L37.8347 21.8079L37.8069 21.6851L35.2267 10.3202Z" fill="#09427E"/>
<path d="M31.8943 21.8079H37.6324H37.8347L38.0808 22.8916H31.5799L31.8943 21.8079Z" fill="#09427E"/>
<path d="M61.9082 45H58.5183L57.4451 28.8522L57.2002 26.0345L57.0855 23.6502L57.049 22.8916L56.977 21.8079L56.5448 15.3054L56.4368 13.6798L56.3215 11.9458L56.2135 10.3202L56.1126 8.80296H59.8305L59.9176 10.3202L60.0109 11.9458L60.1105 13.6798L60.2038 15.3054L60.577 21.8079L60.6392 22.8916L60.6816 23.6502L60.8147 26.0345L60.9813 28.8522L61.9082 45Z" fill="#09427E"/>
<path d="M42.4439 21.8079H45.0683H47.3646H56.977L57.049 22.8916H42.4746L42.2348 21.8079H42.4439Z" fill="#09427E"/>
<path d="M60.577 21.8079H65.6261L65.5168 22.8916H60.6392L60.577 21.8079Z" fill="#09427E"/>
<path d="M10.4042 22.8916H5.48347V21.8079H10.5136L10.4042 22.8916Z" fill="#09427E"/>
<path d="M14.0128 21.8079H27.576L27.2743 22.8916H20.5889H13.9034L14.0128 21.8079Z" fill="#09427E"/>
<path d="M57.2002 26.0345H43.1L42.6255 23.6502H57.0855L57.2002 26.0345Z" fill="#09427E"/>
<path d="M38.8353 26.0345H30.634L31.3516 23.6502H38.2629L38.8353 26.0345Z" fill="#09427E"/>
<path d="M26.3694 26.0345H13.7941V23.6502H27.0559L26.3694 26.0345Z" fill="#09427E"/>
<path d="M5.70217 26.0345H10.2949L10.4042 23.6502H5.48347L5.70217 26.0345Z" fill="#09427E"/>
<path d="M65.298 26.0345H60.8147L60.6816 23.6502H65.5168L65.298 26.0345Z" fill="#09427E"/>
<path d="M59.8305 8.80296H56.1126M59.8305 8.80296L59.9176 10.3202L60.0109 11.9458M59.8305 8.80296L66.1729 12.8128M56.1126 8.80296L56.2135 10.3202L56.3215 11.9458M56.1126 8.80296L41.615 19.0053M60.577 21.8079H65.6261L65.5168 22.8916H60.6392M60.577 21.8079L60.2038 15.3054M60.577 21.8079L60.6392 22.8916M56.977 21.8079L56.5448 15.3054M56.977 21.8079H47.3646M56.977 21.8079L57.049 22.8916M37.6324 21.8079H31.8943M37.6324 21.8079L37.8069 21.6851M37.6324 21.8079H37.8347M56.3215 11.9458L42.4439 21.8079M56.3215 11.9458L56.4368 13.6798L56.5448 15.3054M42.4439 21.8079H45.0683H47.3646M42.4439 21.8079H42.2348M56.5448 15.3054L51.9547 18.5567L47.3646 21.8079M60.0109 11.9458L60.1105 13.6798L60.2038 15.3054M60.0109 11.9458L65.8448 15.8473M60.2038 15.3054L65.6261 19.3153M57.049 22.8916H42.4746M57.049 22.8916L57.0855 23.6502M60.6392 22.8916L60.6816 23.6502M37.6324 1H33.3678L27.576 21.8079M37.6324 1L35.2267 10.3202M37.6324 1L41.615 19.0053M35.2267 10.3202L31.8943 21.8079M35.2267 10.3202L37.8069 21.6851M31.8943 21.8079L31.5799 22.8916M27.576 21.8079H14.0128L13.9034 22.8916H20.5889H27.2743M27.576 21.8079L27.2743 22.8916M27.2743 22.8916L27.0559 23.6502M31.5799 22.8916H38.0808M31.5799 22.8916L31.3516 23.6502M41.615 19.0053L41.9107 20.3425L42.2348 21.8079M37.8069 21.6851L37.8347 21.8079M38.0808 22.8916L37.8347 21.8079M38.0808 22.8916L38.2629 23.6502M42.4746 22.8916L42.2348 21.8079M42.4746 22.8916L42.6255 23.6502M26.3694 26.0345L21.1206 45H25.1665L30.634 26.0345M26.3694 26.0345H13.7941V23.6502H27.0559M26.3694 26.0345L27.0559 23.6502M30.634 26.0345H38.8353M30.634 26.0345L31.3516 23.6502M38.8353 26.0345L43.1 45H47.3646L43.1 26.0345M38.8353 26.0345L38.2629 23.6502M43.1 26.0345H57.2002M43.1 26.0345L42.6255 23.6502M57.2002 26.0345L57.4451 28.8522L58.5183 45H61.9082L60.9813 28.8522L60.8147 26.0345M57.2002 26.0345L57.0855 23.6502M60.8147 26.0345H65.298L65.5168 23.6502H60.6816M60.8147 26.0345L60.6816 23.6502M38.2629 23.6502H31.3516M42.6255 23.6502H57.0855M10.4042 22.8916H5.48347V21.8079H10.5136L10.4042 22.8916ZM5.70217 26.0345H10.2949L10.4042 23.6502H5.48347L5.70217 26.0345Z" stroke="#09427E"/>
<path d="M4.71776 8.80295L6.79541 45H3.40555L0.999847 8.80295H4.71776Z" fill="#09427E" stroke="#09427E"/>
<path d="M66.2822 8.80295L64.2046 45H67.5944L70.0002 8.80295H66.2822Z" fill="#09427E" stroke="#09427E"/>
<path d="M4.42 50.48H5.692L9.004 59H7.588L6.688 56.684H3.4L2.512 59H1.084L4.42 50.48ZM6.424 55.688L5.056 51.956L3.64 55.688H6.424ZM12.9137 59.12C12.4337 59.12 11.9977 59.008 11.6057 58.784C11.2217 58.552 10.9177 58.244 10.6937 57.86V59H9.52966V50.24H10.8497V53.912C11.0977 53.512 11.4057 53.196 11.7737 52.964C12.1497 52.732 12.5897 52.616 13.0937 52.616C13.5097 52.616 13.8897 52.704 14.2337 52.88C14.5777 53.056 14.8697 53.296 15.1097 53.6C15.3577 53.904 15.5457 54.252 15.6737 54.644C15.8097 55.036 15.8777 55.452 15.8777 55.892C15.8777 56.332 15.8017 56.748 15.6497 57.14C15.5057 57.532 15.2977 57.876 15.0257 58.172C14.7537 58.468 14.4377 58.7 14.0777 58.868C13.7257 59.036 13.3377 59.12 12.9137 59.12ZM12.5657 57.992C12.8537 57.992 13.1177 57.936 13.3577 57.824C13.5977 57.704 13.8057 57.548 13.9817 57.356C14.1577 57.164 14.2897 56.94 14.3777 56.684C14.4737 56.428 14.5217 56.164 14.5217 55.892C14.5217 55.516 14.4417 55.164 14.2817 54.836C14.1297 54.508 13.9137 54.244 13.6337 54.044C13.3537 53.844 13.0297 53.744 12.6617 53.744C12.3977 53.744 12.1497 53.808 11.9177 53.936C11.6857 54.056 11.4777 54.22 11.2937 54.428C11.1177 54.628 10.9697 54.852 10.8497 55.1V56.756C10.8977 56.94 10.9817 57.108 11.1017 57.26C11.2217 57.404 11.3617 57.532 11.5217 57.644C11.6817 57.748 11.8537 57.832 12.0377 57.896C12.2217 57.96 12.3977 57.992 12.5657 57.992ZM16.2488 57.164C16.2488 56.764 16.3608 56.416 16.5848 56.12C16.8168 55.816 17.1328 55.584 17.5328 55.424C17.9328 55.256 18.3968 55.172 18.9248 55.172C19.2048 55.172 19.4888 55.192 19.7768 55.232C20.0728 55.272 20.3328 55.336 20.5568 55.424V55.028C20.5568 54.588 20.4248 54.244 20.1608 53.996C19.8968 53.748 19.5168 53.624 19.0208 53.624C18.6688 53.624 18.3368 53.688 18.0248 53.816C17.7128 53.936 17.3808 54.108 17.0288 54.332L16.5848 53.444C17.0008 53.164 17.4168 52.956 17.8328 52.82C18.2568 52.684 18.7008 52.616 19.1648 52.616C20.0048 52.616 20.6648 52.84 21.1448 53.288C21.6328 53.728 21.8768 54.356 21.8768 55.172V57.512C21.8768 57.664 21.9008 57.772 21.9488 57.836C22.0048 57.9 22.0968 57.936 22.2248 57.944V59C22.1048 59.024 21.9968 59.04 21.9008 59.048C21.8048 59.056 21.7248 59.06 21.6608 59.06C21.3808 59.06 21.1688 58.992 21.0248 58.856C20.8808 58.72 20.7968 58.56 20.7728 58.376L20.7368 58.016C20.4648 58.368 20.1168 58.64 19.6928 58.832C19.2688 59.024 18.8408 59.12 18.4088 59.12C17.9928 59.12 17.6208 59.036 17.2928 58.868C16.9648 58.692 16.7088 58.456 16.5248 58.16C16.3408 57.864 16.2488 57.532 16.2488 57.164ZM20.2448 57.548C20.3408 57.444 20.4168 57.34 20.4728 57.236C20.5288 57.132 20.5568 57.04 20.5568 56.96V56.24C20.3328 56.152 20.0968 56.088 19.8488 56.048C19.6008 56 19.3568 55.976 19.1168 55.976C18.6368 55.976 18.2448 56.072 17.9408 56.264C17.6448 56.456 17.4968 56.72 17.4968 57.056C17.4968 57.24 17.5448 57.416 17.6408 57.584C17.7448 57.752 17.8888 57.888 18.0728 57.992C18.2648 58.096 18.5008 58.148 18.7808 58.148C19.0688 58.148 19.3448 58.092 19.6088 57.98C19.8728 57.868 20.0848 57.724 20.2448 57.548ZM23.1116 60.476C23.2316 60.492 23.3476 60.508 23.4596 60.524C23.5796 60.548 23.6756 60.56 23.7476 60.56C23.8836 60.56 23.9996 60.516 24.0956 60.428C24.1996 60.348 24.3036 60.196 24.4076 59.972C24.5116 59.748 24.6396 59.424 24.7916 59L22.2116 52.724H23.5916L25.5116 57.656L27.2156 52.724H28.4876L25.6436 60.452C25.5556 60.684 25.4276 60.896 25.2596 61.088C25.0916 61.288 24.8836 61.444 24.6356 61.556C24.3876 61.668 24.0956 61.724 23.7596 61.724C23.6636 61.724 23.5636 61.716 23.4596 61.7C23.3556 61.684 23.2396 61.66 23.1116 61.628V60.476ZM28.9443 56.312V55.124H32.5323V56.312H28.9443ZM42.9 56.792C42.9 57.208 42.796 57.584 42.588 57.92C42.388 58.248 42.112 58.512 41.76 58.712C41.416 58.904 41.032 59 40.608 59H36.624V50.48H40.596C40.996 50.48 41.34 50.588 41.628 50.804C41.924 51.012 42.148 51.284 42.3 51.62C42.46 51.948 42.54 52.292 42.54 52.652C42.54 53.076 42.432 53.472 42.216 53.84C42 54.2 41.7 54.464 41.316 54.632C41.804 54.776 42.188 55.048 42.468 55.448C42.756 55.84 42.9 56.288 42.9 56.792ZM42.288 56.708C42.288 56.404 42.216 56.12 42.072 55.856C41.936 55.592 41.748 55.376 41.508 55.208C41.268 55.04 40.996 54.956 40.692 54.956H37.236V58.448H40.608C40.92 58.448 41.204 58.368 41.46 58.208C41.716 58.04 41.916 57.824 42.06 57.56C42.212 57.288 42.288 57.004 42.288 56.708ZM37.236 51.032V54.44H40.356C40.668 54.44 40.94 54.36 41.172 54.2C41.412 54.032 41.6 53.82 41.736 53.564C41.872 53.3 41.94 53.024 41.94 52.736C41.94 52.424 41.876 52.14 41.748 51.884C41.62 51.628 41.44 51.424 41.208 51.272C40.984 51.112 40.724 51.032 40.428 51.032H37.236ZM46.9813 53.3C46.4213 53.316 45.9293 53.484 45.5053 53.804C45.0893 54.116 44.7973 54.548 44.6293 55.1V59H44.0293V52.76H44.6053V54.296C44.8213 53.856 45.1093 53.5 45.4693 53.228C45.8293 52.948 46.2093 52.788 46.6093 52.748C46.6893 52.74 46.7613 52.736 46.8253 52.736C46.8893 52.736 46.9413 52.736 46.9813 52.736V53.3ZM47.7591 59V52.76H48.3591V59H47.7591ZM47.7591 51.344V50.24H48.3591V51.344H47.7591ZM49.4515 55.892C49.4515 55.308 49.5755 54.772 49.8235 54.284C50.0715 53.796 50.4115 53.404 50.8435 53.108C51.2755 52.804 51.7675 52.652 52.3195 52.652C52.8635 52.652 53.3435 52.796 53.7595 53.084C54.1835 53.372 54.5155 53.716 54.7555 54.116V50.24H55.3555V58.208C55.3555 58.304 55.3755 58.376 55.4155 58.424C55.4635 58.472 55.5275 58.5 55.6075 58.508V59C55.4795 59.016 55.3835 59.02 55.3195 59.012C55.1755 58.988 55.0555 58.92 54.9595 58.808C54.8635 58.696 54.8155 58.576 54.8155 58.448V57.752C54.5595 58.168 54.2155 58.5 53.7835 58.748C53.3515 58.996 52.9075 59.12 52.4515 59.12C52.0195 59.12 51.6195 59.032 51.2515 58.856C50.8835 58.672 50.5635 58.428 50.2915 58.124C50.0275 57.82 49.8195 57.476 49.6675 57.092C49.5235 56.708 49.4515 56.308 49.4515 55.892ZM54.7555 56.9V54.848C54.6435 54.544 54.4635 54.268 54.2155 54.02C53.9675 53.764 53.6875 53.564 53.3755 53.42C53.0635 53.268 52.7555 53.192 52.4515 53.192C52.0915 53.192 51.7635 53.268 51.4675 53.42C51.1795 53.572 50.9275 53.776 50.7115 54.032C50.5035 54.288 50.3435 54.58 50.2315 54.908C50.1195 55.228 50.0635 55.56 50.0635 55.904C50.0635 56.256 50.1275 56.596 50.2555 56.924C50.3835 57.244 50.5595 57.532 50.7835 57.788C51.0155 58.036 51.2795 58.232 51.5755 58.376C51.8795 58.512 52.2075 58.58 52.5595 58.58C52.7755 58.58 53.0035 58.536 53.2435 58.448C53.4915 58.36 53.7235 58.24 53.9395 58.088C54.1635 57.928 54.3475 57.748 54.4915 57.548C54.6435 57.34 54.7315 57.124 54.7555 56.9ZM59.4263 59.096C59.0023 59.096 58.6063 59.008 58.2383 58.832C57.8783 58.656 57.5663 58.416 57.3023 58.112C57.0463 57.8 56.8423 57.456 56.6903 57.08C56.5463 56.696 56.4743 56.3 56.4743 55.892C56.4743 55.468 56.5423 55.06 56.6783 54.668C56.8223 54.276 57.0223 53.932 57.2783 53.636C57.5423 53.332 57.8503 53.092 58.2023 52.916C58.5543 52.74 58.9463 52.652 59.3783 52.652C59.9223 52.652 60.3943 52.796 60.7943 53.084C61.2023 53.364 61.5463 53.708 61.8263 54.116V52.76H62.3783V59.12C62.3783 59.68 62.2423 60.152 61.9703 60.536C61.6983 60.92 61.3383 61.204 60.8903 61.388C60.4423 61.58 59.9583 61.676 59.4383 61.676C58.7103 61.676 58.1303 61.544 57.6983 61.28C57.2743 61.016 56.9303 60.668 56.6663 60.236L57.0743 59.96C57.3223 60.376 57.6583 60.684 58.0823 60.884C58.5063 61.084 58.9583 61.184 59.4383 61.184C59.8623 61.184 60.2503 61.104 60.6023 60.944C60.9623 60.792 61.2463 60.56 61.4543 60.248C61.6703 59.944 61.7783 59.568 61.7783 59.12V57.752C61.5303 58.16 61.1903 58.488 60.7583 58.736C60.3343 58.976 59.8903 59.096 59.4263 59.096ZM59.5703 58.58C59.8343 58.58 60.0903 58.532 60.3383 58.436C60.5863 58.34 60.8143 58.212 61.0223 58.052C61.2303 57.884 61.4023 57.7 61.5383 57.5C61.6743 57.3 61.7543 57.1 61.7783 56.9V54.848C61.6583 54.528 61.4743 54.244 61.2263 53.996C60.9863 53.74 60.7143 53.544 60.4103 53.408C60.1063 53.264 59.7943 53.192 59.4743 53.192C59.0983 53.192 58.7623 53.272 58.4663 53.432C58.1703 53.592 57.9183 53.804 57.7103 54.068C57.5103 54.324 57.3543 54.616 57.2423 54.944C57.1383 55.264 57.0863 55.584 57.0863 55.904C57.0863 56.264 57.1503 56.604 57.2783 56.924C57.4063 57.244 57.5823 57.532 57.8063 57.788C58.0383 58.036 58.3023 58.232 58.5983 58.376C58.9023 58.512 59.2263 58.58 59.5703 58.58ZM66.546 59.12C66.106 59.12 65.698 59.036 65.322 58.868C64.946 58.692 64.618 58.456 64.338 58.16C64.066 57.856 63.85 57.508 63.69 57.116C63.538 56.716 63.462 56.296 63.462 55.856C63.462 55.264 63.594 54.728 63.858 54.248C64.122 53.768 64.486 53.384 64.95 53.096C65.414 52.8 65.934 52.652 66.51 52.652C67.102 52.652 67.626 52.8 68.082 53.096C68.538 53.392 68.898 53.784 69.162 54.272C69.434 54.752 69.57 55.28 69.57 55.856C69.57 55.904 69.57 55.952 69.57 56C69.57 56.048 69.566 56.088 69.558 56.12H64.086C64.118 56.592 64.25 57.02 64.482 57.404C64.714 57.788 65.01 58.092 65.37 58.316C65.738 58.532 66.138 58.64 66.57 58.64C67.002 58.64 67.41 58.528 67.794 58.304C68.178 58.08 68.446 57.792 68.598 57.44L69.126 57.584C69.006 57.88 68.814 58.144 68.55 58.376C68.294 58.608 67.99 58.792 67.638 58.928C67.294 59.056 66.93 59.12 66.546 59.12ZM64.062 55.652H68.994C68.962 55.164 68.834 54.732 68.61 54.356C68.386 53.98 68.09 53.684 67.722 53.468C67.362 53.252 66.962 53.144 66.522 53.144C66.082 53.144 65.682 53.252 65.322 53.468C64.962 53.684 64.67 53.98 64.446 54.356C64.222 54.732 64.094 55.164 64.062 55.652Z" fill="#2E3D49"/>
</svg>
